<?xml version="1.0" encoding="UTF-8" standalone="no"?><svg xmlns="http://www.w3.org/2000/svg" xmlns:xlink="http://www.w3.org/1999/xlink" contentScriptType="application/ecmascript" contentStyleType="text/css" height="78px" preserveAspectRatio="none" style="width:568px;height:78px;background:#FFFFFF;" version="1.1" viewBox="0 0 568 78" width="568px" zoomAndPan="magnify"><defs><filter height="300%" id="fq8h6fslgoeq4" width="300%" x="-1" y="-1"><feGaussianBlur result="blurOut" stdDeviation="2.0"/><feColorMatrix in="blurOut" result="blurOut2" type="matrix" values="0 0 0 0 0 0 0 0 0 0 0 0 0 0 0 0 0 0 .4 0"/><feOffset dx="4.0" dy="4.0" in="blurOut2" result="blurOut3"/><feBlend in="SourceGraphic" in2="blurOut3" mode="normal"/></filter></defs><g><rect fill="#FEFECE" filter="url(#fq8h6fslgoeq4)" height="36.4883" rx="12.5" ry="12.5" style="stroke:#A80036;stroke-width:1.5;" width="49" x="10" y="20"/><text fill="#000000" font-family="sans-serif" font-size="14" lengthAdjust="spacing" textLength="29" x="20" y="43.5352">root</text><rect fill="#FEFECE" filter="url(#fq8h6fslgoeq4)" height="36.4883" rx="12.5" ry="12.5" style="stroke:#A80036;stroke-width:1.5;" width="46" x="109" y="20"/><text fill="#000000" font-family="sans-serif" font-size="14" lengthAdjust="spacing" textLength="26" x="119" y="43.5352">edit</text><rect fill="#FEFECE" filter="url(#fq8h6fslgoeq4)" height="36.4883" rx="12.5" ry="12.5" style="stroke:#A80036;stroke-width:1.5;" width="71" x="205" y="20"/><text fill="#000000" font-family="sans-serif" font-size="14" lengthAdjust="spacing" textLength="51" x="215" y="43.5352">caption</text><rect fill="#FEFECE" filter="url(#fq8h6fslgoeq4)" height="36.4883" rx="12.5" ry="12.5" style="stroke:#A80036;stroke-width:1.5;" width="223" x="326" y="20"/><text fill="#000000" font-family="sans-serif" font-size="14" lengthAdjust="spacing" textLength="203" x="336" y="43.5352">edit captions ( ctrl + shift + c)</text><path d="M276,38.2441 L286,38.2441 C301,38.2441 301,38.2441 316,38.2441 L326,38.2441 " fill="none" style="stroke:#A80036;stroke-width:1.0;"/><path d="M155,38.2441 L165,38.2441 C180,38.2441 180,38.2441 195,38.2441 L205,38.2441 " fill="none" style="stroke:#A80036;stroke-width:1.0;"/><path d="M59,38.2441 L69,38.2441 C84,38.2441 84,38.2441 99,38.2441 L109,38.2441 " fill="none" style="stroke:#A80036;stroke-width:1.0;"/><!--MD5=[1290c16cdbada68ca4b85796c44feb87]
@startmindmap

* root
** edit
*** caption
**** edit captions ( ctrl + shift + c)

@endmindmap

PlantUML version 1.2021.13(Mon Nov 01 20:38:45 KST 2021)
(GPL source distribution)
Java Runtime: OpenJDK Runtime Environment
JVM: OpenJDK 64-Bit Server VM
Default Encoding: UTF-8
Language: ko
Country: KR
--></g></svg>